<svg width="60" height="32" viewBox="0 0 60 32" fill="none" xmlns="http://www.w3.org/2000/svg">
<path d="M0 1C0 0.447716 0.447715 0 1 0L14.0426 0C17.3328 0 20 3.13402 20 7.00002C20 10.866 17.3328 14 14.0426 14H1C0.447716 14 0 13.5523 0 13V1Z" fill="currentColor"/>
<path d="M0 17C0 16.4477 0.447715 16 1 16H16.8511C20.7993 16 24 19.5817 24 24C24 28.4183 20.7993 32 16.8511 32H0.999999C0.447715 32 0 31.5523 0 31V17Z" fill="currentColor"/>
<path d="M27.03 32C27.0022 32 26.9882 32 26.9764 31.9997C26.4426 31.9871 26.0129 31.5574 26.0003 31.0236C26 31.0118 26 30.9978 26 30.97L26.0002 7.87476C26.0002 3.52565 29.5818 0 34.0001 0C38.4183 0 42 3.52565 42 7.87476V30.97C42 30.9979 42 31.0118 41.9997 31.0236C41.9871 31.5574 41.5574 31.9871 41.0236 31.9997C41.0118 32 40.9979 32 40.97 32H27.03Z" fill="currentColor"/>
<path d="M45 32C44.4477 32 44 31.5523 44 31V7.87476C44 3.52565 47.5817 0 52 0C56.4182 0 60 3.52565 60 7.87476V31C60 31.5523 59.5523 32 59 32H45Z" fill="currentColor"/>
</svg>
