<svg width="71" height="32" viewBox="0 0 71 32" fill="none" xmlns="http://www.w3.org/2000/svg">
<path d="M0 0.00292969H17.5C21.366 0.00292969 24.5 3.13694 24.5 7.00293V7.00293C24.5 10.8689 21.366 14.0029 17.5 14.0029H0V0.00292969Z" fill="currentColor"/>
<path d="M0 17.5029H17.5C21.366 17.5029 24.5 20.6369 24.5 24.5029V24.5029C24.5 28.3689 21.366 31.5029 17.5 31.5029H0V17.5029Z" fill="currentColor"/>
<path d="M27.9932 31.499V7.87402C27.9932 3.52478 31.5189 -0.000976562 35.8682 -0.000976562V-0.000976562C40.2174 -0.000976562 43.7432 3.52478 43.7432 7.87402V31.499H27.9932Z" fill="currentColor"/>
<path d="M47.2432 31.499V7.87402C47.2432 3.52478 50.7689 -0.000976562 55.1182 -0.000976562V-0.000976562C59.4674 -0.000976562 62.9932 3.52478 62.9932 7.87402V31.499H47.2432Z" fill="currentColor"/>
</svg>
