<svg width="60" height="30" viewBox="0 0 60 30" fill="none" xmlns="http://www.w3.org/2000/svg">
<path d="M0 2C0 0.895431 0.895431 0 2 0L12.6383 0C15.5995 0 18 2.6863 18 6.00001C18 9.31371 15.5995 12 12.6383 12H2C0.89543 12 0 11.1046 0 10V2Z" fill="currentColor"/>
<path d="M0 16C0 14.8954 0.89543 14 2 14H16.8511C20.7993 14 24 17.5817 24 22C24 26.4183 20.7993 30 16.8511 30H2C0.895429 30 0 29.1046 0 28V16Z" fill="currentColor"/>
<path d="M28.06 30C28.0043 30 27.9765 30 27.9529 29.9994C26.8852 29.9743 26.0257 29.1148 26.0006 28.0471C26 28.0235 26 27.9957 26 27.94L26.0002 7.38258C26.0002 3.3053 29.5818 0 34.0001 0C38.4183 0 42 3.3053 42 7.38258V27.94C42 27.9957 42 28.0236 41.9994 28.0471C41.9743 29.1148 41.1148 29.9743 40.0471 29.9994C40.0236 30 39.9957 30 39.94 30H28.06Z" fill="currentColor"/>
<path d="M46 30C44.8954 30 44 29.1046 44 28V7.38258C44 3.3053 47.5817 0 52 0C56.4182 0 60 3.3053 60 7.38258V28C60 29.1046 59.1046 30 58 30H46Z" fill="currentColor"/>
</svg>
